<?xml version="1.0" encoding="utf-8"?>
<!-- Generator: Adobe Illustrator 21.0.2, SVG Export Plug-In . SVG Version: 6.00 Build 0)  -->
<svg version="1.1" id="Layer_1" xmlns="http://www.w3.org/2000/svg" xmlns:xlink="http://www.w3.org/1999/xlink" x="0px" y="0px"
	 viewBox="0 0 300 300" style="enable-background:new 0 0 300 300;" xml:space="preserve">
<style type="text/css">
	.st0{fill:none;stroke:#000000;stroke-width:3.3461;stroke-miterlimit:10;}
	.st1{fill:url(#SVGID_1_);}
	.st2{fill:url(#SVGID_2_);}
	.st3{fill:url(#SVGID_3_);}
	.st4{fill:url(#SVGID_4_);}
	.st5{fill:#FF0000;}
	.st6{fill:#ED1C24;}
</style>
<g>
	<g>
		<g>
			<g>
				<path class="st0" d="M150.6,159.2"/>
			</g>
		</g>
		<linearGradient id="SVGID_1_" gradientUnits="userSpaceOnUse" x1="136.1925" y1="145.5516" x2="188.4573" y2="145.5516">
			<stop  offset="0" style="stop-color:#FF0000"/>
			<stop  offset="1" style="stop-color:#690000"/>
		</linearGradient>
		<path class="st1" d="M174.1,125.3c-21.9,0-32.8,13.1-37.9,22.4c8.5-6.8,19.4-10.6,22-10.6c4.3,0,9.8,1.2,9.8,5.5
			c0,15.5-26.5,22.5-26.5,22.5c31.6,4.1,46.9-16.8,46.9-29.4c0-0.7,0-1.4-0.1-2C188.1,132.3,186.4,125.3,174.1,125.3z"/>
		<linearGradient id="SVGID_2_" gradientUnits="userSpaceOnUse" x1="102.089" y1="150.8438" x2="208.614" y2="150.8438">
			<stop  offset="0" style="stop-color:#FF0000"/>
			<stop  offset="1" style="stop-color:#DB3B00"/>
		</linearGradient>
		<path class="st2" d="M199.6,105.8c0,0,2,7.8,2,14.3c0,54.4-49.4,56.8-55.2,56.8c-5.7,0-20.4-0.8-20.4-11.6c0-7,4.6-12.9,10.3-17.5
			c5-9.3,16-22.4,37.9-22.4c12.4,0,14.1,7,14.3,8.5c-1.2-11-12.1-15-25.3-15c-35.2,0-60.9,34.3-60.9,50s12.6,27.1,33,27.1
			c58.4,0,73.5-40.2,73.5-59.3C208.6,117.5,199.6,105.8,199.6,105.8z"/>
		<path d="M117.5,109.4c0,0,16.5-15,42.5-15c7.6,0,17,2,17,2l4.3,18.7c0,0-7.1-3.6-17.1-3.6c-24.2,0-44.1,16-44.1,16L117.5,109.4z"
			/>
		<path d="M138.4,59.2L77.6,97.4l14,3.3c-1.4,6-1.6,13-1,20.2c1.3-0.9,2.8-1.4,4.5-1.4c0.9,0,1.7,0.2,2.5,0.4
			c-1.2-7.9-0.8-15.5-0.6-17.9l16.1,3.8c0,0,14.5-19,43.4-19c21.3,0,26.9,4.8,26.9,4.8l22.7-9.1L138.4,59.2z"/>
		<path d="M101.1,132.2c-1.4,1.7-3.6,2.9-6,2.9c-0.9,0-1.7-0.2-2.5-0.5c2.5,13.2,6.1,23.9,6.1,23.9s0.5-18.5,7.2-19.9
			C103.8,136.9,102.3,134.7,101.1,132.2z"/>
		<linearGradient id="SVGID_3_" gradientUnits="userSpaceOnUse" x1="88.753" y1="127.2488" x2="101.358" y2="127.2488">
			<stop  offset="0" style="stop-color:#FF0000"/>
			<stop  offset="1" style="stop-color:#DB3B00"/>
		</linearGradient>
		<circle class="st3" cx="95.1" cy="127.2" r="6.3"/>
	</g>
	<g>
		<linearGradient id="SVGID_4_" gradientUnits="userSpaceOnUse" x1="236.183" y1="222.7305" x2="247.5294" y2="222.7305">
			<stop  offset="0" style="stop-color:#FF0000"/>
			<stop  offset="1" style="stop-color:#DB3B00"/>
		</linearGradient>
		<path class="st4" d="M241.9,217.7c2.8,0,5,2.2,5,5c0,2.8-2.2,5-5,5c-2.8,0-5-2.2-5-5C236.9,220,239.1,217.7,241.9,217.7
			 M241.9,217.1c-3.1,0-5.7,2.5-5.7,5.7c0,3.1,2.5,5.7,5.7,5.7s5.7-2.5,5.7-5.7C247.5,219.6,245,217.1,241.9,217.1L241.9,217.1z"/>
		<g>
			<path class="st5" d="M239.4,221.4h-1.3v-0.6c1.1,0,2,0,3.1,0v0.6h-1.3v3.3h-0.6V221.4z"/>
			<path class="st5" d="M244.9,221.7l-1.3,1.8h-0.1l-1.3-1.8v2.9h-0.6v-3.8c0.2,0,0.5,0,0.7,0l1.3,1.8l1.3-1.8h0.7v3.8h-0.6V221.7z"
				/>
		</g>
	</g>
	<g>
		<path d="M70.7,228.6v3.7v0.1h-12v0.6c0,1.4,0.4,2.3,1.3,2.6c0.6,0.2,1.3,0.3,2.4,0.3h0.5c2.3,0,4.7-0.2,7.2-0.8h0v5.4
			c0,0.1-1.1,0.3-3.4,0.6c-1.4,0.2-3.1,0.2-4.9,0.2c-4.7,0-7.7-1.6-9.1-4.8c-0.5-1.3-0.8-2.6-0.8-3.9v-5.1c0-3.8,1.6-6.3,4.7-7.5
			c1.5-0.5,2.9-0.7,4.5-0.7c4.4,0,7.3,1.4,8.6,4.3C70.4,224.9,70.7,226.5,70.7,228.6z M63.1,224.9c-0.5-0.3-1.1-0.5-1.8-0.5
			c-1.9,0-2.6,0.8-2.6,2.5v1H64v-0.4C64,226.1,63.7,225.2,63.1,224.9z"/>
		<path class="st6" d="M92.2,228.6v3.7v0.1h-12v0.6c0,1.4,0.4,2.3,1.3,2.6c0.6,0.2,1.3,0.3,2.4,0.3h0.5c2.3,0,4.7-0.2,7.2-0.8h0v5.4
			c0,0.1-1.1,0.3-3.4,0.6c-1.4,0.2-3.1,0.2-4.9,0.2c-4.7,0-7.7-1.6-9.1-4.8c-0.5-1.3-0.8-2.6-0.8-3.9v-5.1c0-3.8,1.6-6.3,4.7-7.5
			c1.5-0.5,2.9-0.7,4.5-0.7c4.4,0,7.3,1.4,8.6,4.3C91.9,224.9,92.2,226.5,92.2,228.6z M84.6,224.9c-0.5-0.3-1.1-0.5-1.8-0.5
			c-1.9,0-2.6,0.8-2.6,2.5v1h5.4v-0.4C85.6,226.1,85.2,225.2,84.6,224.9z"/>
		<path class="st6" d="M95.7,222.5c0.9-2,3.3-3,7.1-3c1.4,0,3.3,0.4,4.7,0.8c0,0.9,0-1.4,0-3.9c0-1.5,0-3.2,0-5.3l6.5-1.2v30.7
			c-3.2,0.5-6.1,0.8-8.8,0.8c-3.9,0-6.6-0.8-8.2-2.2c-0.8-0.8-1.2-1.4-1.4-2c-0.5-0.8-0.8-3-0.8-6.5v-2.1
			C94.9,225.4,95.2,223.4,95.7,222.5z M101.7,234.2c0.4,1.2,1.5,1.8,3.4,1.8h0.4l1.9-0.1v-10c-1-0.6-2-0.9-3-0.9H104l-0.5,0
			c-1.3,0.2-1.9,1-1.9,2.4v5.4C101.6,233.4,101.6,233.8,101.7,234.2z"/>
		<path class="st6" d="M116.9,232.2v-12.4h6.7v13.6c0,1.3,0.6,2.2,1.9,2.4c0.4,0,0.8,0.1,1.3,0c0.8,0,1.8-0.2,2.9-0.9l0-15.1h6.7
			v21.4h-5.5l-0.2-0.4c-0.1-0.3-0.2-0.5-0.4-1c-0.5,0.2-2.7,1.5-5.9,1.6c-2.6,0.1-4.9-0.2-6.7-3
			C117.1,237.2,116.9,235.5,116.9,232.2z"/>
		<path d="M155.7,220.4v5.3c-2.4-0.4-4.7-0.7-6-0.7c-1.6,0-2.6,0.3-3.1,0.8c-0.4,0.3-0.7,1.4-0.7,3.4v2.7c0,1.8,0.2,2.8,0.6,3.2
			c0.5,0.6,1.5,0.9,3.1,0.9h0.5c1.2,0,3-0.3,5.6-0.8h0v5.3c0,0.1-1.2,0.4-3.5,0.7c-0.9,0.1-2,0.2-3.3,0.2c-4.5,0-7.5-1.6-8.9-4.9
			c-0.5-1-0.7-2.8-0.7-5.3v-1.4c0-3.1,0.4-5.1,1.2-6.3c1.6-2.6,4.4-4,8.4-4C151.1,219.5,153.3,219.8,155.7,220.4z"/>
		<path d="M176.4,228v13.2H171c0-0.1-0.1-0.3-0.1-0.4c-0.1-0.3-0.2-0.6-0.2-0.9c-1.9,1-3.9,1.6-5.9,1.6h-0.6c-2,0-3.5-0.8-4.7-2.3
			c-0.8-1.2-1.2-2.5-1.2-4V235c0-2.6,0.9-4.3,2.7-5.1c0.8-0.5,2.6-0.8,5.7-0.8h3.1v-0.7c0-1.5-0.2-2.3-0.6-2.6
			c-0.5-0.4-1.3-0.5-2.5-0.5h-6.2l0.6-5.5h6.6c4.2,0,6.8,1,7.8,3.1C176.2,224.2,176.4,225.9,176.4,228z M167.6,233.5
			c-1.3,0-2,0.1-2.3,0.4c-0.2,0.2-0.3,0.6-0.3,1.1c0,1.2,0.6,1.8,1.8,1.8c0.8,0,1.9-0.4,3-0.9v-2.4H167.6z"/>
		<path d="M192.3,219.4l0.6,5.7c-0.8,0-2.3,0.1-2.8,0.2l-0.4,0.1c-1,0.2-2.3,0.6-4.1,1.3v1.1v13.4h-6.5v-21.6h5.4
			c0,0.2,0.1,0.3,0.2,0.5c0.1,0.3,0.2,0.6,0.4,1.1c0.5-0.2,0.8-0.3,1.5-0.6c0.9-0.3,1.9-0.6,3.2-0.9
			C190.6,219.6,191.5,219.5,192.3,219.4z"/>
		<path d="M213.8,228.6v3.7v0.1h-12v0.6c0,1.4,0.4,2.3,1.3,2.6c0.6,0.2,1.3,0.3,2.4,0.3h0.5c2.3,0,4.7-0.2,7.2-0.8h0v5.4
			c0,0.1-1.1,0.3-3.4,0.6c-1.4,0.2-3.1,0.2-4.9,0.2c-4.7,0-7.7-1.6-9.1-4.8c-0.5-1.3-0.8-2.6-0.8-3.9v-5.1c0-3.8,1.6-6.3,4.7-7.5
			c1.5-0.5,2.9-0.7,4.5-0.7c4.4,0,7.3,1.4,8.6,4.3C213.6,224.9,213.8,226.5,213.8,228.6z M206.2,224.9c-0.5-0.3-1.1-0.5-1.8-0.5
			c-1.9,0-2.6,0.8-2.6,2.5v1h5.4v-0.4C207.2,226.1,206.9,225.2,206.2,224.9z"/>
		<path d="M225.1,241.5c-3.2,0-6.5-0.4-8.2-0.7l-0.6-5.7c1.5,0.3,10,2,10.8,0c0.8-2.1-6.3-1.7-9.5-4.7c-1.6-1.4-1.6-3.3-1.5-4.7
			c0.6-5.6,5.9-6,9-6.1c2.9-0.1,5.7,0.2,7.4,0.5l0.6,5.7c-2-0.4-9.2-1.6-10,0.2c-0.9,2.2,6.6,2,9.5,4.7c1.5,1.5,1.6,3.3,1.4,4.7
			C233.5,240.9,228.2,241.4,225.1,241.5z"/>
	</g>
</g>
</svg>
